# xmcd CD database file
#
# Track frame offsets:
#	150
#	32195
#	69239
#	106895
#	125728
#	157989
#	187378
#
# Disc length: 2908 seconds
#
# Revision: 0
# Processed by: cddbd v1.5.2PL0 Copyright (c) Steve Scherf et al.
# Submitted via: CDex 1.70beta2
#
DISCID=5f0b5a07
DTITLE=Jessica Williams - The Standards (Vol 2)
DYEAR=2006
DGENRE=Jazz
TTITLE0=All Alone
TTITLE1=Don't Blame Me
TTITLE2=East of the Sun
TTITLE3=St. Thomas
TTITLE4=You do Somrthing to Me
TTITLE5=In a Sentimental Mood
TTITLE6=All Alone
EXTD=YEAR: 2006
EXTT0=
EXTT1=
EXTT2=
EXTT3=
EXTT4=
EXTT5=
EXTT6=
PLAYORDER=
